# 3ds Max Wavefront OBJ Exporter v0.97b - (c)2007 guruware
# File Created: 01.04.2014 21:08:10

#
# object pCube1
#

v  -0.0702 0.0025 0.0702
v  -0.0015 0.0025 0.1046
v  -0.0010 0.1185 0.0721
v  -0.0484 0.1185 0.0484
v  -0.0698 0.3095 0.0698
v  -0.0015 0.3095 0.1034
v  0.0035 0.3095 0.0938
v  -0.0666 0.3095 0.0617
v  -0.0484 0.1185 -0.0484
v  -0.0010 0.1185 -0.0721
v  -0.0015 0.0025 -0.1046
v  -0.0702 0.0025 -0.0702
v  0.0999 0.0025 -0.0007
v  0.0702 0.0025 0.0702
v  -0.0999 0.0025 -0.0007
v  0.0702 0.0025 -0.0702
v  0.0688 0.1185 -0.0005
v  0.0484 0.1185 0.0484
v  -0.0688 0.1185 -0.0005
v  -0.0702 0.2729 0.0702
v  -0.0998 0.2731 -0.0007
v  -0.1008 0.1878 -0.0007
v  -0.0708 0.1878 0.0708
v  -0.0708 0.1878 -0.0708
v  -0.0702 0.2731 -0.0702
v  -0.0015 0.2731 -0.1039
v  -0.0015 0.1878 -0.1055
v  0.0998 0.2734 -0.0007
v  0.0702 0.2733 0.0702
v  0.0708 0.1878 0.0708
v  0.1008 0.1878 -0.0007
v  -0.0015 0.2735 0.1039
v  -0.0015 0.1878 0.1055
v  0.0702 0.2731 -0.0702
v  0.0708 0.1878 -0.0708
v  0.0484 0.1185 -0.0484
v  -0.0010 0.3083 -0.1039
v  -0.0059 0.3083 -0.0942
v  0.0653 0.3095 -0.0608
v  0.0698 0.3095 -0.0698
v  -0.0993 0.3086 -0.0007
v  -0.0894 0.3085 0.0031
v  -0.0610 0.3082 -0.0650
v  -0.0698 0.3082 -0.0698
v  0.0916 0.3095 -0.0038
v  0.0619 0.3095 0.0664
v  0.0698 0.3095 0.0698
v  0.0993 0.3095 -0.0007
v  -0.0911 0.2733 0.0031
v  -0.0617 0.2733 -0.0659
v  0.0036 0.2733 0.0945
v  -0.0668 0.2733 0.0612
v  0.0921 0.2733 -0.0033
v  0.0619 0.2733 0.0669
v  -0.0053 0.2733 -0.0948
v  0.0664 0.2733 -0.0607
# 56 vertices

vn -0.3461 0.6334 0.6921
vn -0.0011 0.6726 0.7400
vn 0.0011 -0.0437 0.9990
vn -0.4470 -0.0342 0.8939
vn -0.0000 1.0000 0.0000
vn -0.4470 -0.0342 -0.8939
vn 0.0011 -0.0437 -0.9990
vn -0.0011 0.6726 -0.7400
vn -0.3461 0.6334 -0.6921
vn 0.0000 -1.0000 -0.0000
vn 0.7210 0.6239 0.3014
vn 0.7553 0.6554 -0.0005
vn 0.9992 -0.0399 0.0006
vn 0.7225 -0.0380 0.6903
vn -0.7553 0.6554 -0.0005
vn -0.7210 0.6239 0.3014
vn -0.9220 -0.0364 0.3854
vn -0.9992 -0.0399 0.0006
vn -0.9222 0.0317 0.3855
vn -0.9968 0.0366 -0.0709
vn -0.8921 -0.4519 -0.0004
vn -0.8355 -0.4241 0.3493
vn -0.4001 -0.4379 -0.8051
vn -0.4433 0.0440 -0.8953
vn 0.0801 0.0427 -0.9959
vn -0.0006 -0.4544 -0.8908
vn 0.9967 0.0364 0.0720
vn 0.7627 0.0413 0.6454
vn 0.6405 -0.4523 0.6207
vn 0.8924 -0.4512 -0.0002
vn -0.0813 0.0480 0.9955
vn -0.4424 0.0431 0.8958
vn -0.4001 -0.4377 0.8052
vn -0.0003 -0.4539 0.8911
vn 0.4287 0.0346 -0.9028
vn 0.3876 -0.4333 -0.8136
vn 0.4320 -0.0348 -0.9012
vn 0.3352 0.6313 -0.6994
vn 0.3352 0.6313 0.6994
vn 0.8323 -0.4256 -0.3551
vn 0.9193 0.0317 -0.3922
vn -0.0043 1.0000 -0.0022
vn 0.0020 1.0000 -0.0009
vn -0.9192 0.0354 -0.3922
vn -0.8321 -0.4260 -0.3550
vn -0.9192 -0.0361 -0.3922
vn -0.7180 0.6250 -0.3063
vn 0.7180 0.6250 -0.3063
vn 0.9192 -0.0361 -0.3922
vn 0.0000 1.0000 0.0000
vn 0.9154 -0.1153 0.3856
vn 0.0195 0.9998 0.0084
vn 0.0190 0.9998 0.0079
vn 0.4217 -0.0120 -0.9066
vn 0.0102 0.9997 -0.0220
vn 0.0094 0.9997 -0.0205
vn -0.9187 -0.0411 -0.3927
vn -0.0223 0.9997 -0.0095
vn -0.0205 0.9998 -0.0088
vn -0.4261 -0.0564 0.9029
vn -0.0110 0.9997 0.0230
vn -0.0093 0.9998 0.0197
vn 0.9218 0.0432 0.3854
vn -0.4402 0.0409 0.8970
vn -0.9189 0.0444 -0.3921
vn 0.4293 0.0119 -0.9031
vn 0.9117 0.0523 0.4076
vn 0.0005 1.0000 -0.0010
vn 0.3441 -0.0047 -0.9389
vn -0.9334 0.0270 -0.3578
vn -0.0115 0.9999 0.0052
vn -0.3753 0.0389 0.9261
vn -0.9078 0.0065 -0.4194
vn -0.0036 1.0000 -0.0072
vn 0.8834 0.0290 0.4677
vn -0.0009 1.0000 -0.0030
vn -0.3856 0.0285 0.9222
vn 0.4638 0.0284 -0.8855
# 78 vertex normals

vt 0.2773 0.4616 0.0000
vt 0.4143 0.4618 0.0000
vt 0.4084 0.6490 0.0000
vt 0.2686 0.6493 0.0000
vt 0.9441 0.0796 0.0000
vt 0.8323 0.0799 0.0000
vt 0.8321 0.0454 0.0000
vt 0.9430 0.0462 0.0000
vt 0.9898 0.6518 0.0000
vt 0.8838 0.6509 0.0000
vt 0.8862 0.4555 0.0000
vt 0.9876 0.4514 0.0000
vt 0.4106 0.2093 0.0000
vt 0.3501 0.3416 0.0000
vt 0.2056 0.4050 0.0000
vt 0.0678 0.3400 0.0000
vt 0.0091 0.2070 0.0000
vt 0.0695 0.0774 0.0000
vt 0.2081 0.0139 0.0000
vt 0.3518 0.0790 0.0000
vt 0.5462 0.4624 0.0000
vt 0.6679 0.4607 0.0000
vt 0.6647 0.6495 0.0000
vt 0.5385 0.6472 0.0000
vt 0.1386 0.4653 0.0000
vt 0.1366 0.6517 0.0000
vt 0.2752 0.9942 0.0000
vt 0.1387 0.9930 0.0000
vt 0.1366 0.8165 0.0000
vt 0.2703 0.8183 0.0000
vt 0.9870 0.8189 0.0000
vt 0.9876 0.9909 0.0000
vt 0.8764 0.9912 0.0000
vt 0.8791 0.8214 0.0000
vt 0.6547 0.9915 0.0000
vt 0.5354 0.9905 0.0000
vt 0.5350 0.8156 0.0000
vt 0.6598 0.8224 0.0000
vt 0.4042 0.9950 0.0000
vt 0.4035 0.8180 0.0000
vt 0.7753 0.9920 0.0000
vt 0.7764 0.8210 0.0000
vt 0.7793 0.6480 0.0000
vt 0.7809 0.4624 0.0000
vt 0.9412 0.2545 0.0000
vt 0.9406 0.2960 0.0000
vt 0.8170 0.2938 0.0000
vt 0.8169 0.2556 0.0000
vt 0.9447 0.1483 0.0000
vt 0.9430 0.1878 0.0000
vt 0.8246 0.1876 0.0000
vt 0.8240 0.1493 0.0000
vt 0.0222 0.9938 0.0000
vt 0.0206 0.8116 0.0000
vt 0.0181 0.6528 0.0000
vt 0.0131 0.4660 0.0000
vt 0.9431 0.3963 0.0000
vt 0.8226 0.3950 0.0000
vt 0.8216 0.3529 0.0000
vt 0.9404 0.3527 0.0000
vt 0.9674 0.2106 0.0000
vt 0.8028 0.2086 0.0000
vt 0.8038 0.0210 0.0000
vt 0.9679 0.0209 0.0000
vt 0.9617 0.4188 0.0000
vt 0.8016 0.4179 0.0000
vt 0.9614 0.3168 0.0000
vt 0.7972 0.3156 0.0000
vt 0.7630 0.3031 0.0000
vt 0.6591 0.3883 0.0000
vt 0.5004 0.3824 0.0000
vt 0.4155 0.2823 0.0000
vt 0.4155 0.1165 0.0000
vt 0.5201 0.0360 0.0000
vt 0.6759 0.0425 0.0000
vt 0.7634 0.1403 0.0000
vt 0.8020 0.3323 0.0000
vt 0.9603 0.3317 0.0000
vt 0.9682 0.1089 0.0000
vt 0.8043 0.1075 0.0000
vt 0.8016 0.1283 0.0000
vt 0.9662 0.1295 0.0000
vt 0.7970 0.2311 0.0000
vt 0.9607 0.2308 0.0000
vt 0.3943 0.2810 0.0000
vt 0.4983 0.3993 0.0000
vt 0.7833 0.1421 0.0000
vt 0.6766 0.0225 0.0000
vt 0.5197 0.0161 0.0000
vt 0.3951 0.1155 0.0000
vt 0.6579 0.4070 0.0000
vt 0.7852 0.3019 0.0000
# 92 texture coords

g pCube1
f 1/1/1 2/2/2 3/3/3 
f 3/3/3 4/4/4 1/1/1 
f 5/5/5 6/6/5 7/7/5 
f 7/7/5 8/8/5 5/5/5 
f 9/9/6 10/10/7 11/11/8 
f 11/11/8 12/12/9 9/9/6 
f 13/13/10 14/14/10 2/15/10 
f 13/13/10 2/15/10 1/16/10 
f 13/13/10 1/16/10 15/17/10 
f 13/13/10 15/17/10 12/18/10 
f 13/13/10 12/18/10 11/19/10 
f 13/13/10 11/19/10 16/20/10 
f 14/21/11 13/22/12 17/23/13 
f 17/23/13 18/24/14 14/21/11 
f 15/25/15 1/1/16 4/4/17 
f 4/4/17 19/26/18 15/25/15 
f 20/27/19 21/28/20 22/29/21 
f 22/29/21 23/30/22 20/27/19 
f 24/31/23 25/32/24 26/33/25 
f 26/33/25 27/34/26 24/31/23 
f 28/35/27 29/36/28 30/37/29 
f 30/37/29 31/38/30 28/35/27 
f 32/39/31 20/27/32 23/30/33 
f 23/30/33 33/40/34 32/39/31 
f 19/26/18 4/4/17 23/30/22 
f 23/30/22 22/29/21 19/26/18 
f 4/4/4 3/3/3 33/40/34 
f 33/40/34 23/30/33 4/4/4 
f 24/31/23 27/34/26 10/10/7 
f 10/10/7 9/9/6 24/31/23 
f 29/36/28 32/39/31 33/40/34 
f 33/40/34 30/37/29 29/36/28 
f 27/34/26 26/33/25 34/41/35 
f 34/41/35 35/42/36 27/34/26 
f 10/10/7 27/34/26 35/42/36 
f 35/42/36 36/43/37 10/10/7 
f 11/11/8 10/10/7 36/43/37 
f 36/43/37 16/44/38 11/11/8 
f 3/3/3 2/2/2 14/21/39 
f 14/21/39 18/24/14 3/3/3 
f 30/37/29 33/40/34 3/3/3 
f 3/3/3 18/24/14 30/37/29 
f 35/42/40 34/41/41 28/35/27 
f 28/35/27 31/38/30 35/42/40 
f 37/45/42 38/46/42 39/47/42 
f 39/47/42 40/48/42 37/45/42 
f 41/49/43 42/50/43 43/51/43 
f 43/51/43 44/52/43 41/49/43 
f 22/29/21 21/28/20 25/53/44 
f 25/53/44 24/54/45 22/29/21 
f 9/55/46 19/26/18 22/29/21 
f 22/29/21 24/54/45 9/55/46 
f 12/56/47 15/25/15 19/26/18 
f 19/26/18 9/55/46 12/56/47 
f 17/23/13 13/22/12 16/44/48 
f 16/44/48 36/43/49 17/23/13 
f 31/38/30 17/23/13 36/43/49 
f 36/43/49 35/42/40 31/38/30 
f 45/57/50 46/58/50 47/59/50 
f 47/59/50 48/60/50 45/57/50 
f 43/51/51 42/50/51 49/61/52 
f 49/61/52 50/62/53 43/51/51 
f 8/8/54 7/7/54 51/63/55 
f 51/63/55 52/64/56 8/8/54 
f 46/58/57 45/57/57 53/65/58 
f 53/65/58 54/66/59 46/58/57 
f 39/47/60 38/46/60 55/67/61 
f 55/67/61 56/68/62 39/47/60 
f 51/69/55 54/70/59 53/71/58 
f 51/69/55 53/71/58 56/72/62 
f 51/69/55 56/72/62 55/73/61 
f 51/69/55 55/73/61 50/74/53 
f 51/69/55 50/74/53 49/75/52 
f 51/69/55 49/75/52 52/76/56 
f 29/77/28 28/78/27 48/60/63 
f 48/60/63 47/59/63 29/77/28 
f 20/79/32 32/80/31 6/6/64 
f 6/6/64 5/5/64 20/79/32 
f 25/81/44 21/82/20 41/49/65 
f 41/49/65 44/52/65 25/81/44 
f 34/83/35 26/84/25 37/45/66 
f 37/45/66 40/48/66 34/83/35 
f 56/68/67 34/83/67 40/48/67 
f 40/48/67 39/47/67 56/68/67 
f 34/85/68 56/72/62 53/71/58 
f 53/71/58 28/86/68 34/85/68 
f 28/78/69 53/65/69 45/57/69 
f 45/57/69 48/60/69 28/78/69 
f 5/5/70 8/8/70 52/64/70 
f 52/64/70 20/79/70 5/5/70 
f 20/87/71 52/76/56 49/75/52 
f 49/75/52 21/88/71 20/87/71 
f 42/50/72 41/49/72 21/82/72 
f 21/82/72 49/61/72 42/50/72 
f 38/46/73 37/45/73 26/84/73 
f 26/84/73 55/67/73 38/46/73 
f 25/89/74 50/74/53 55/73/61 
f 55/73/61 26/90/74 25/89/74 
f 32/80/75 51/63/75 7/7/75 
f 7/7/75 6/6/75 32/80/75 
f 29/91/76 54/70/59 51/69/55 
f 51/69/55 32/92/76 29/91/76 
f 47/59/77 46/58/77 54/66/77 
f 54/66/77 29/77/77 47/59/77 
f 50/62/78 25/81/78 44/52/78 
f 44/52/78 43/51/78 50/62/78 
f 31/38/30 30/37/29 18/24/14 
f 18/24/14 17/23/13 31/38/30 
# 108 faces

